<svg xmlns="http://www.w3.org/2000/svg" viewBox="0 0 1881.82 1881.82"><defs><style>.cls-1{fill:#1d1d1b;}</style></defs><g id="Layer_2" data-name="Layer 2"><g id="Layer_1-2" data-name="Layer 1"><path class="cls-1" d="M834.78,706.15A258.61,258.61,0,0,0,706.13,834.82l-16.64,49.91L535.7,1346.13,997,1192.35l50-16.67a258.59,258.59,0,0,0,128.64-128.63l16.67-50L1346.12,535.7,884.77,689.49Zm192.8,234.76a86.67,86.67,0,1,1-86.67-86.66A86.67,86.67,0,0,1,1027.58,940.91Z"/><path class="cls-1" d="M940.91,0C421.26,0,0,421.26,0,940.91s421.26,940.91,940.91,940.91,940.91-421.26,940.91-940.91S1460.56,0,940.91,0Zm0,1708.49c-423.92,0-767.58-343.65-767.58-767.58S517,173.33,940.91,173.33,1708.49,517,1708.49,940.91,1364.84,1708.49,940.91,1708.49Z"/></g></g></svg>