<svg xmlns="http://www.w3.org/2000/svg" viewBox="0 0 2215.82 1881.82"><defs><style>.cls-1{fill:#1d1d1b;}</style></defs><g id="Layer_2" data-name="Layer 2"><g id="Layer_1-2" data-name="Layer 1"><path class="cls-1" d="M1230.41,51l.21-.2h0a173.43,173.43,0,0,0-245.26,0l-960,960a86.66,86.66,0,0,0,0,122.55h0a86.65,86.65,0,0,0,122.56,0l86.89-86.88c23.7-23.7,64.23-6.91,64.23,26.61v580.56c0,126,102.17,228.2,228.2,228.2H718c118.83,0,215.15-96.33,215.15-215.15v-438.1a82.1,82.1,0,0,1,82.1-82.1h168.91a82.1,82.1,0,0,1,82.1,82.1v438.1c0,118.82,96.32,215.15,215.14,215.15h207.2c126,0,228.2-102.17,228.2-228.2V1073.31c0-33.53,40.53-50.31,64.23-26.61l86.88,86.88a86.67,86.67,0,0,0,122.56,0h0a86.66,86.66,0,0,0,0-122.57Zm458.95,1657.5H1493.61a54.07,54.07,0,0,1-54.08-54.07V1191.58c0-120.63-97.79-218.42-218.42-218.42H978.21c-120.64,0-218.43,97.79-218.43,218.42v462.84a54.07,54.07,0,0,1-54.07,54.07H526.46a54.07,54.07,0,0,1-54.07-54.07V914.81A255.72,255.72,0,0,1,547.29,734l526.25-526.25a48.42,48.42,0,0,1,68.48,0l526.51,526.49a255.75,255.75,0,0,1,74.91,180.84v739.36A54.08,54.08,0,0,1,1689.36,1708.49Z"/></g></g></svg>