<svg xmlns="http://www.w3.org/2000/svg" viewBox="0 0 1881.82 1881.82"><defs><style>.cls-1{fill:#1d1d1b;}</style></defs><g id="Layer_2" data-name="Layer 2"><g id="Layer_1-2" data-name="Layer 1"><path class="cls-1" d="M1795.15,854.24H1115.91a88.33,88.33,0,0,1-88.34-88.33V86.66A86.66,86.66,0,0,0,940.91,0h0a86.67,86.67,0,0,0-86.67,86.66V765.91a88.32,88.32,0,0,1-88.33,88.33H86.66A86.67,86.67,0,0,0,0,940.91H0a86.66,86.66,0,0,0,86.66,86.66H765.91a88.33,88.33,0,0,1,88.33,88.34v679.24a86.67,86.67,0,0,0,86.67,86.67h0a86.66,86.66,0,0,0,86.66-86.67V1115.91a88.34,88.34,0,0,1,88.34-88.34h679.24a86.66,86.66,0,0,0,86.67-86.66h0A86.67,86.67,0,0,0,1795.15,854.24Z"/></g></g></svg>